<svg xmlns="http://www.w3.org/2000/svg" width="30" height="30"><path d="M 3 0 C 1.352 0 0 1.352 0 3 L 0 12.544 C 0 13.078 0.14 13.575 0.356 14.006 L 0.375 14.025 L 1.763 16.5 C 2.309 17.43 3.308 18.001 4.387 18 L 7.2 18 L 7.2 16.8 L 4.387 16.8 C 3.739 16.802 3.14 16.459 2.812 15.9 L 2.644 15.6 L 27.356 15.6 L 27.187 15.9 C 26.881 16.413 26.219 16.8 25.613 16.8 L 22.8 16.8 L 22.8 18 L 25.613 18 C 26.681 18 27.701 17.421 28.237 16.5 L 29.625 14.025 L 29.644 14.006 C 29.86 13.575 30 13.078 30 12.544 L 30 3 C 30 1.352 28.648 0 27 0 Z M 3 1.2 L 27 1.2 C 27.994 1.2 28.8 2.006 28.8 3 L 28.8 12 L 1.2 12 L 1.2 3 C 1.2 2.006 2.006 1.2 3 1.2 Z M 22.8 3.6 L 22.8 5.55 L 21.112 4.575 L 20.512 5.625 L 22.2 6.6 L 20.512 7.575 L 21.112 8.625 L 22.8 7.65 L 22.8 9.6 L 24 9.6 L 24 7.65 L 25.688 8.625 L 26.288 7.575 L 24.6 6.6 L 26.288 5.625 L 25.688 4.575 L 24 5.55 L 24 3.6 Z M 1.35 13.2 L 28.65 13.2 C 28.617 13.289 28.598 13.378 28.556 13.463 L 28.031 14.4 L 1.968 14.4 L 1.443 13.462 C 1.401 13.378 1.382 13.289 1.349 13.2 Z M 9.6 16.8 C 8.937 16.8 8.4 17.337 8.4 18 C 8.4 18.663 8.937 19.2 9.6 19.2 C 10.263 19.2 10.8 18.663 10.8 18 C 10.8 17.337 10.263 16.8 9.6 16.8 Z M 15 16.8 C 14.337 16.8 13.8 17.337 13.8 18 C 13.8 18.663 14.337 19.2 15 19.2 C 15.663 19.2 16.2 18.663 16.2 18 C 16.2 17.337 15.663 16.8 15 16.8 Z M 20.4 16.8 C 19.737 16.8 19.2 17.337 19.2 18 C 19.2 18.663 19.737 19.2 20.4 19.2 C 21.063 19.2 21.6 18.663 21.6 18 C 21.6 17.337 21.063 16.8 20.4 16.8 Z M 9 20.4 C 8.337 20.4 7.8 20.937 7.8 21.6 C 7.8 22.263 8.337 22.8 9 22.8 C 9.663 22.8 10.2 22.263 10.2 21.6 C 10.2 20.937 9.663 20.4 9 20.4 Z M 15 20.4 C 14.337 20.4 13.8 20.937 13.8 21.6 C 13.8 22.263 14.337 22.8 15 22.8 C 15.663 22.8 16.2 22.263 16.2 21.6 C 16.2 20.937 15.663 20.4 15 20.4 Z M 21 20.4 C 20.337 20.4 19.8 20.937 19.8 21.6 C 19.8 22.263 20.337 22.8 21 22.8 C 21.663 22.8 22.2 22.263 22.2 21.6 C 22.2 20.937 21.663 20.4 21 20.4 Z M 7.8 24 C 7.137 24 6.6 24.537 6.6 25.2 C 6.6 25.863 7.137 26.4 7.8 26.4 C 8.463 26.4 9 25.863 9 25.2 C 9 24.537 8.463 24 7.8 24 Z M 15 24 C 14.337 24 13.8 24.537 13.8 25.2 C 13.8 25.863 14.337 26.4 15 26.4 C 15.663 26.4 16.2 25.863 16.2 25.2 C 16.2 24.537 15.663 24 15 24 Z M 22.2 24 C 21.537 24 21 24.537 21 25.2 C 21 25.863 21.537 26.4 22.2 26.4 C 22.863 26.4 23.4 25.863 23.4 25.2 C 23.4 24.537 22.863 24 22.2 24 Z M 5.4 27.6 C 4.737 27.6 4.2 28.137 4.2 28.8 C 4.2 29.463 4.737 30 5.4 30 C 6.063 30 6.6 29.463 6.6 28.8 C 6.6 28.137 6.063 27.6 5.4 27.6 Z M 15 27.6 C 14.337 27.6 13.8 28.137 13.8 28.8 C 13.8 29.463 14.337 30 15 30 C 15.663 30 16.2 29.463 16.2 28.8 C 16.2 28.137 15.663 27.6 15 27.6 Z M 24.6 27.6 C 23.937 27.6 23.4 28.137 23.4 28.8 C 23.4 29.463 23.937 30 24.6 30 C 25.263 30 25.8 29.463 25.8 28.8 C 25.8 28.137 25.263 27.6 24.6 27.6 Z" fill="hsl(0, 0%, 100%)"></path></svg>