<?xml version="1.0" encoding="iso-8859-1"?>
<!-- Generator: Adobe Illustrator 18.0.0, SVG Export Plug-In . SVG Version: 6.00 Build 0)  -->
<!DOCTYPE svg PUBLIC "-//W3C//DTD SVG 1.1//EN" "http://www.w3.org/Graphics/SVG/1.1/DTD/svg11.dtd">
<svg version="1.1" id="Capa_1" xmlns="http://www.w3.org/2000/svg" xmlns:xlink="http://www.w3.org/1999/xlink" x="0px" y="0px"
	 viewBox="0 0 296.872 296.872" style="enable-background:new 0 0 296.872 296.872;" xml:space="preserve">
<path d="M274.791,76.469h-11.854V49.48c0-5.421-4.391-9.814-9.814-9.814H190.97c-5.424,0-9.814,4.394-9.814,9.814v26.988h-65.429
	V49.48c0-5.421-4.39-9.814-9.813-9.814H43.761c-5.424,0-9.814,4.394-9.814,9.814v26.988H22.082C9.91,76.469,0,86.373,0,98.549
	v136.582c0,12.17,9.91,22.075,22.082,22.075h252.709c12.172,0,22.081-9.905,22.081-22.075V98.549
	C296.872,86.373,286.963,76.469,274.791,76.469z M53.574,59.294h42.524v17.175H53.574V59.294z M105.913,176.649H43.761
	c-5.424,0-9.814-4.395-9.814-9.814c0-5.42,4.391-9.813,9.814-9.813h62.152c5.424,0,9.813,4.394,9.813,9.813
	C115.726,172.255,111.337,176.649,105.913,176.649z M200.783,59.294h42.524v17.175h-42.524V59.294z M253.122,176.649h-21.268v21.261
	c0,5.421-4.389,9.814-9.813,9.814c-5.424,0-9.814-4.393-9.814-9.814v-21.261H190.97c-5.424,0-9.814-4.395-9.814-9.814
	c0-5.42,4.391-9.813,9.814-9.813h21.257v-21.263c0-5.419,4.391-9.813,9.814-9.813c5.425,0,9.813,4.395,9.813,9.813v21.263h21.268
	c5.424,0,9.814,4.394,9.814,9.813C262.936,172.255,258.546,176.649,253.122,176.649z"/>
<g>
</g>
<g>
</g>
<g>
</g>
<g>
</g>
<g>
</g>
<g>
</g>
<g>
</g>
<g>
</g>
<g>
</g>
<g>
</g>
<g>
</g>
<g>
</g>
<g>
</g>
<g>
</g>
<g>
</g>
</svg>
