<svg xmlns="http://www.w3.org/2000/svg" width="24" height="24"><path d="M 1 5.5 C 1 6.61 1.06 7.433 1.199 8.053 C 1.334 8.663 1.53 9.013 1.759 9.241 C 1.987 9.47 2.338 9.666 2.947 9.801 C 3.567 9.94 4.39 10 5.5 10 C 6.61 10 7.433 9.94 8.053 9.801 C 8.663 9.666 9.013 9.47 9.241 9.241 C 9.47 9.013 9.666 8.662 9.801 8.053 C 9.94 7.433 10 6.61 10 5.5 C 10 4.39 9.94 3.567 9.801 2.947 C 9.666 2.337 9.47 1.987 9.241 1.759 C 9.013 1.53 8.662 1.334 8.053 1.199 C 7.433 1.06 6.61 1 5.5 1 C 4.39 1 3.567 1.06 2.947 1.199 C 2.337 1.334 1.987 1.53 1.759 1.759 C 1.53 1.987 1.334 2.338 1.199 2.947 C 1.06 3.567 1 4.39 1 5.5 Z M 1 18.5 C 1 19.61 1.06 20.433 1.199 21.053 C 1.334 21.663 1.53 22.013 1.759 22.241 C 1.987 22.47 2.338 22.666 2.947 22.801 C 3.567 22.939 4.391 23 5.5 23 C 6.61 23 7.433 22.94 8.053 22.801 C 8.663 22.666 9.013 22.47 9.241 22.241 C 9.47 22.013 9.666 21.662 9.801 21.053 C 9.939 20.433 10 19.609 10 18.5 C 10 17.39 9.94 16.567 9.801 15.947 C 9.666 15.337 9.47 14.987 9.241 14.759 C 9.013 14.53 8.662 14.334 8.053 14.199 C 7.433 14.06 6.61 14 5.5 14 C 4.39 14 3.567 14.06 2.947 14.199 C 2.337 14.334 1.987 14.53 1.759 14.759 C 1.53 14.987 1.334 15.338 1.199 15.947 C 1.06 16.567 1 17.39 1 18.5 Z M 14 5.5 C 14 6.61 14.06 7.433 14.199 8.053 C 14.334 8.663 14.53 9.013 14.759 9.241 C 14.987 9.47 15.338 9.666 15.947 9.801 C 16.567 9.939 17.391 10 18.5 10 C 19.61 10 20.433 9.94 21.053 9.801 C 21.663 9.666 22.013 9.47 22.241 9.241 C 22.47 9.013 22.666 8.662 22.801 8.053 C 22.94 7.433 23 6.61 23 5.5 C 23 4.39 22.94 3.567 22.801 2.947 C 22.666 2.337 22.47 1.987 22.241 1.759 C 22.013 1.53 21.662 1.334 21.053 1.199 C 20.433 1.06 19.61 1 18.5 1 C 17.39 1 16.567 1.06 15.947 1.199 C 15.337 1.334 14.987 1.53 14.759 1.759 C 14.53 1.987 14.334 2.338 14.199 2.947 C 14.06 3.567 14 4.39 14 5.5 Z M 14 18.5 C 14 19.61 14.06 20.433 14.199 21.053 C 14.334 21.663 14.53 22.013 14.759 22.241 C 14.987 22.47 15.338 22.666 15.947 22.801 C 16.567 22.939 17.391 23 18.5 23 C 19.61 23 20.433 22.94 21.053 22.801 C 21.663 22.666 22.013 22.47 22.241 22.241 C 22.47 22.013 22.666 21.662 22.801 21.053 C 22.939 20.433 23 19.609 23 18.5 C 23 17.39 22.94 16.567 22.801 15.947 C 22.666 15.337 22.47 14.987 22.241 14.759 C 22.013 14.53 21.662 14.334 21.053 14.199 C 20.433 14.06 19.61 14 18.5 14 C 17.39 14 16.567 14.06 15.947 14.199 C 15.337 14.334 14.987 14.53 14.759 14.759 C 14.53 14.987 14.334 15.338 14.199 15.947 C 14.061 16.567 14 17.391 14 18.5 Z" fill="transparent" stroke-width="2" stroke="hsl(0, 0%, 100%)" stroke-linecap="round" stroke-linejoin="round" stroke-dasharray=""></path></svg>