<svg xmlns="http://www.w3.org/2000/svg" width="21" height="21"><path d="M 10.5 1.969 L 7.688 5.906 L 2.625 5.906 L 2.625 7.219 L 3.938 7.219 L 3.938 8.531 L 5.25 8.531 L 5.25 7.219 L 7.219 7.219 L 7.219 13.781 L 3.938 19.031 L 10.5 17.719 L 17.063 19.031 L 13.781 13.781 L 13.781 7.219 L 15.75 7.219 L 15.75 8.531 L 17.063 8.531 L 17.063 7.219 L 18.375 7.219 L 18.375 5.906 L 13.312 5.906 Z M 10.5 4.227 L 11.7 5.906 L 9.3 5.906 Z M 8.716 7.219 L 12.284 7.219 L 10.5 9.449 Z M 8.531 9.09 L 9.659 10.5 L 8.531 11.91 Z M 12.469 9.09 L 12.469 11.91 L 11.341 10.5 Z M 10.5 11.551 L 12.284 13.781 L 10.5 16.011 L 8.716 13.781 Z M 12.992 14.997 L 14.337 17.147 L 11.694 16.619 Z M 8.008 14.999 L 9.303 16.62 L 6.662 17.147 Z" fill="hsl(0, 0%, 100%)"></path></svg>