<svg xmlns="http://www.w3.org/2000/svg" width="24" height="24"><path d="M 0.221 8.992 C -0.015 10.56 -0.293 14.733 0.735 19.43 C 1.302 22.021 2.773 23.21 5.875 23.605 C 10 24.131 14 24.131 18.213 23.605 C 21.317 23.218 22.839 22.04 23.353 19.43 C 24.257 14.84 23.984 10.745 23.875 9.102 L 23.867 8.992 C 23.793 7.874 17.777 3.283 14.357 0.759 C 12.984 -0.257 11.107 -0.253 9.739 0.769 C 6.347 3.296 0.39 7.874 0.221 8.993 Z M 21.419 9.009 C 21.637 9.226 21.794 9.397 21.899 9.523 C 22.012 11.283 22.194 14.963 21.391 19.043 C 21.199 20.017 20.875 20.489 20.503 20.787 C 20.081 21.127 19.344 21.444 17.965 21.617 C 13.915 22.122 10.083 22.122 6.128 21.617 C 4.755 21.442 4.031 21.122 3.613 20.783 C 3.237 20.478 2.906 19.993 2.689 19.001 C 1.788 14.885 1.961 11.197 2.157 9.605 C 2.33 9.401 2.513 9.206 2.705 9.02 C 3.279 8.454 4.093 7.741 5.045 6.954 C 6.939 5.387 9.244 3.636 10.932 2.379 C 11.6 1.881 12.502 1.879 13.172 2.373 C 14.873 3.629 17.197 5.383 19.095 6.95 C 20.049 7.738 20.858 8.448 21.419 9.009 Z" fill="hsl(0, 0%, 100%)"></path><path d="M 9 21.896 C 8.332 21.852 7.665 21.793 7 21.72 L 7 16.114 C 6.999 15.317 7.314 14.553 7.877 13.989 C 8.44 13.425 9.203 13.108 10 13.107 L 14 13.107 C 15.657 13.107 17 14.454 17 16.114 L 17 21.728 C 16.328 21.798 15.662 21.856 15 21.898 L 15 16.114 C 15.001 15.848 14.895 15.594 14.708 15.406 C 14.52 15.218 14.266 15.112 14 15.112 L 10 15.112 C 9.734 15.112 9.48 15.218 9.292 15.406 C 9.105 15.594 8.999 15.848 9 16.114 Z" fill="hsl(0, 0%, 100%)"></path></svg>