<?xml version="1.0" encoding="utf-8"?>
<!-- Generator: Adobe Illustrator 19.1.0, SVG Export Plug-In . SVG Version: 6.00 Build 0)  -->
<svg version="1.1" id="Layer_1" xmlns="http://www.w3.org/2000/svg" xmlns:xlink="http://www.w3.org/1999/xlink" x="0px" y="0px"
	 viewBox="0 0 64 64" enable-background="new 0 0 64 64" xml:space="preserve">
<g id="LIghting">
	<path d="M27.2587757,2.0000501l21.7412128,34.1000023h-18l8.6921883,25.8999977L14.9999876,30.10005h20L27.2587757,2.0000501
		 M27.2578754-0.04155c-0.2782001,0-0.5599995,0.057-0.8281002,0.1762c-0.9229984,0.4102-1.407299,1.4337-1.1389999,2.4075
		l7.0294991,25.5165997H14.9999876c-0.7788115,0-1.4897118,0.4431-1.8327112,1.1422997
		c-0.3430004,0.6991997-0.2582006,1.5326996,0.2185001,2.1485004l24.6922112,31.8999996
		c0.3980865,0.5143013,1.0005875,0.7919998,1.6152878,0.7919998c0.3269005,0,0.6571007-0.0784988,0.9618988-0.2416
		c0.8782997-0.4698982,1.2891998-1.5051003,0.9723015-2.449398L33.8383751,38.141449h15.1616135
		c0.745388,0,1.431488-0.4062996,1.7898865-1.0597992c0.3583984-0.6535988,0.3321114-1.4505005-0.0685997-2.0789986
		L28.9800758,0.90255C28.5947762,0.29835,27.9370766-0.04155,27.2578754-0.04155L27.2578754-0.04155z"/>
</g>
<g>
</g>
<g>
</g>
<g>
</g>
<g>
</g>
<g>
</g>
<g>
</g>
<g>
</g>
<g>
</g>
<g>
</g>
<g>
</g>
<g>
</g>
<g>
</g>
<g>
</g>
<g>
</g>
<g>
</g>
</svg>
