<svg xmlns="http://www.w3.org/2000/svg" width="51" height="51"><path d="M 25.42 4.502 C 24.743 4.502 24.225 5.02 24.225 5.698 L 24.225 8.367 C 22.073 8.885 20.52 10.838 20.52 13.109 L 20.52 16.296 C 20.52 18.049 19.802 19.723 18.527 20.878 C 16.057 23.07 14.822 26.217 15.061 29.484 C 15.459 34.664 19.643 38.768 24.863 39.127 C 25.102 39.127 25.301 39.166 25.54 39.166 C 28.329 39.166 30.959 38.091 32.951 36.098 C 34.903 34.066 35.979 31.437 35.979 28.648 C 35.979 25.699 34.704 22.83 32.473 20.878 C 31.118 19.643 30.321 17.93 30.321 16.177 L 30.321 13.109 C 30.321 10.798 28.727 8.885 26.616 8.367 L 26.616 5.698 C 26.616 5.02 26.098 4.502 25.42 4.502 Z M 25.38 10.598 C 25.978 11.276 26.377 12.152 26.377 13.109 L 26.377 15.619 L 22.91 15.619 L 22.91 13.109 C 22.91 11.754 24.026 10.638 25.38 10.598 Z M 22.751 17.97 L 28.17 17.97 C 28.568 19.723 29.524 21.356 30.919 22.631 C 32.632 24.145 33.628 26.337 33.628 28.648 C 33.628 30.799 32.791 32.831 31.238 34.345 C 29.564 35.979 27.333 36.855 24.982 36.696 C 20.998 36.457 17.73 33.27 17.452 29.285 C 17.252 26.735 18.248 24.345 20.121 22.631 C 21.476 21.436 22.392 19.762 22.751 17.97 Z M 8.766 27.452 C 8.088 27.452 7.57 27.97 7.57 28.648 C 7.57 29.325 8.088 29.843 8.766 29.843 L 10.638 29.843 C 11.316 29.843 11.834 29.325 11.834 28.648 C 11.834 27.97 11.316 27.452 10.638 27.452 Z M 40.362 27.452 C 39.684 27.452 39.166 27.97 39.166 28.648 C 39.166 29.325 39.724 29.843 40.362 29.843 L 42.234 29.843 C 42.912 29.843 43.43 29.325 43.43 28.648 C 43.43 27.97 42.912 27.452 42.234 27.452 Z M 14.996 37.931 C 14.692 37.931 14.384 38.051 14.145 38.29 L 12.83 39.605 C 12.352 40.083 12.352 40.84 12.83 41.278 C 13.069 41.517 13.388 41.637 13.667 41.637 C 13.986 41.637 14.264 41.517 14.504 41.278 L 15.818 39.963 C 16.296 39.485 16.296 38.728 15.818 38.29 C 15.599 38.051 15.3 37.931 14.996 37.931 Z M 36.004 37.931 C 35.701 37.931 35.402 38.051 35.183 38.29 C 34.705 38.768 34.705 39.525 35.183 39.963 L 36.497 41.278 C 36.736 41.517 37.055 41.637 37.334 41.637 C 37.653 41.637 37.932 41.517 38.171 41.278 C 38.649 40.8 38.649 40.043 38.171 39.605 L 36.856 38.29 C 36.617 38.051 36.308 37.931 36.004 37.931 Z M 25.5 42.274 C 24.823 42.274 24.305 42.792 24.305 43.47 L 24.305 45.302 C 24.305 45.98 24.823 46.498 25.5 46.498 C 26.177 46.498 26.695 45.98 26.695 45.302 L 26.695 43.47 C 26.695 42.792 26.177 42.274 25.5 42.274 Z" fill="hsl(0, 0%, 100%)"></path></svg>