<svg xmlns="http://www.w3.org/2000/svg" viewBox="0 0 32 32">
  <path d="M16 4C10.421875 4 5.742188 7.832031 4.40625 13L6.46875 13C7.746094 8.945313 11.53125 6 16 6C21.515625 6 26 10.484375 26 16C26 21.515625 21.515625 26 16 26C11.53125 26 7.746094 23.054688 6.46875 19L4.40625 19C5.742188 24.167969 10.421875 28 16 28C22.617188 28 28 22.617188 28 16C28 9.382813 22.617188 4 16 4 Z M 15.34375 11.28125L13.90625 12.71875L16.1875 15L4 15L4 17L16.1875 17L13.90625 19.28125L15.34375 20.71875L19.34375 16.71875L20.03125 16L19.34375 15.28125Z" fill="#FFFFFF" />
</svg>