<svg xmlns="http://www.w3.org/2000/svg" width="28" height="30"><path d="M 8.149 23.034 L 8.923 21.737 L 8.149 23.034 C 9.229 23.691 10.35 23.431 11.225 23.067 C 12.063 22.718 13.067 22.107 14.212 21.411 C 14.245 21.391 14.279 21.37 14.312 21.35 L 17.082 19.666 C 17.115 19.646 17.148 19.626 17.18 19.606 C 18.326 18.909 19.331 18.298 20.034 17.71 C 20.776 17.089 21.5 16.235 21.5 15 C 21.5 13.765 20.776 12.911 20.034 12.29 C 19.331 11.702 18.326 11.091 17.18 10.394 C 17.148 10.375 17.115 10.354 17.082 10.334 L 14.312 8.65 C 14.279 8.63 14.245 8.609 14.211 8.589 C 13.067 7.893 12.063 7.282 11.225 6.933 C 10.35 6.569 9.229 6.309 8.149 6.966 C 7.093 7.609 6.764 8.713 6.63 9.664 C 6.5 10.59 6.5 11.803 6.5 13.203 C 6.5 13.24 6.5 13.278 6.5 13.316 L 6.5 16.684 C 6.5 16.722 6.5 16.76 6.5 16.797 C 6.5 18.197 6.5 19.41 6.63 20.336 C 6.764 21.287 7.093 22.391 8.149 23.034 Z" fill="transparent" stroke-width="3" stroke="hsl(0, 0%, 100%)" stroke-linecap="round" stroke-linejoin="round" stroke-dasharray=""></path></svg>