<svg xmlns="http://www.w3.org/2000/svg" width="28" height="28"><path d="M 7 14.01 C 6.968 16.955 7.46 18.594 8.408 19.543 C 9.361 20.495 11.02 21 14 21 C 16.98 21 18.621 20.495 19.565 19.545 C 20.51 18.594 21 16.951 21 14 C 21 11.049 20.51 9.406 19.565 8.455 C 18.621 7.505 16.98 7 14 7 C 11.02 7 9.397 7.505 8.462 8.452 C 7.52 9.406 7.032 11.052 7 14.011 Z" fill="transparent" stroke-width="2" stroke="hsl(0, 0%, 100%)" stroke-linecap="round" stroke-linejoin="round" stroke-dasharray=""></path><path d="M 15 1 C 15 0.448 14.552 0 14 0 C 13.448 0 13 0.448 13 1 Z M 13 3 C 13 3.552 13.448 4 14 4 C 14.552 4 15 3.552 15 3 Z M 13 1 L 13 3 L 15 3 L 15 1 Z M 15 25 C 15 24.448 14.552 24 14 24 C 13.448 24 13 24.448 13 25 Z M 13 27 C 13 27.552 13.448 28 14 28 C 14.552 28 15 27.552 15 27 Z M 13 25 L 13 27 L 15 27 L 15 25 Z M 27 15 C 27.552 15 28 14.552 28 14 C 28 13.448 27.552 13 27 13 Z M 25 13 C 24.448 13 24 13.448 24 14 C 24 14.552 24.448 15 25 15 Z M 27 13 L 25 13 L 25 15 L 27 15 Z M 3 15 C 3.552 15 4 14.552 4 14 C 4 13.448 3.552 13 3 13 Z M 1 13 C 0.448 13 0 13.448 0 14 C 0 14.552 0.448 15 1 15 Z M 3 13 L 1 13 L 1 15 L 3 15 Z M 4.707 3.293 C 4.315 2.914 3.691 2.919 3.305 3.305 C 2.919 3.691 2.914 4.315 3.293 4.707 Z M 4.707 6.121 C 5.099 6.5 5.723 6.495 6.109 6.109 C 6.495 5.723 6.5 5.099 6.121 4.707 Z M 3.293 4.707 L 4.707 6.121 L 6.121 4.707 L 4.707 3.293 Z M 4.707 25.121 C 4.315 25.5 3.691 25.495 3.305 25.109 C 2.919 24.723 2.914 24.099 3.293 23.707 Z M 4.707 22.293 C 5.099 21.914 5.723 21.919 6.109 22.305 C 6.495 22.691 6.5 23.315 6.121 23.707 Z M 3.293 23.707 L 4.707 22.293 L 6.121 23.707 L 4.707 25.121 Z M 23.707 3.293 C 23.958 3.033 24.33 2.929 24.68 3.02 C 25.029 3.112 25.302 3.385 25.394 3.734 C 25.485 4.084 25.381 4.456 25.121 4.707 Z M 23.707 6.121 C 23.315 6.5 22.691 6.495 22.305 6.109 C 21.919 5.723 21.914 5.099 22.293 4.707 Z M 25.121 4.707 L 23.707 6.121 L 22.293 4.707 L 23.707 3.293 Z M 23.707 25.121 C 24.099 25.5 24.723 25.495 25.109 25.109 C 25.495 24.723 25.5 24.099 25.121 23.707 Z M 23.707 22.293 C 23.315 21.914 22.691 21.919 22.305 22.305 C 21.919 22.691 21.914 23.315 22.293 23.707 Z M 25.121 23.707 L 23.707 22.293 L 22.293 23.707 L 23.707 25.121 Z" fill="hsl(0, 0%, 100%)"></path></svg>