<svg xmlns="http://www.w3.org/2000/svg" width="24" height="24"><path d="M 8.585 3.839 C 8.506 4.262 8.246 4.63 7.874 4.846 C 7.501 5.061 7.052 5.103 6.646 4.96 C 3.013 3.677 0.312 8.378 3.23 10.878 C 3.918 11.468 3.918 12.532 3.23 13.122 C 0.312 15.622 3.013 20.323 6.646 19.04 C 7.498 18.74 8.419 19.27 8.585 20.161 C 9.29 23.946 14.709 23.946 15.415 20.161 C 15.494 19.738 15.754 19.37 16.126 19.154 C 16.499 18.939 16.948 18.897 17.354 19.04 C 20.987 20.323 23.688 15.622 20.77 13.122 C 20.443 12.841 20.254 12.431 20.254 12 C 20.254 11.569 20.443 11.159 20.77 10.878 C 23.688 8.378 20.987 3.677 17.354 4.96 C 16.502 5.26 15.581 4.73 15.415 3.839 C 14.71 0.054 9.291 0.054 8.585 3.839 Z" fill="transparent" stroke-width="2" stroke="hsl(0, 0%, 100%)" stroke-linejoin="round" stroke-dasharray=""></path><path d="M 15 12 C 15 10.343 13.657 9 12 9 C 10.343 9 9 10.343 9 12 C 9 13.657 10.343 15 12 15 C 13.657 15 15 13.657 15 12 Z" fill="transparent" stroke-width="2" stroke="hsl(0, 0%, 100%)" stroke-miterlimit="10" stroke-dasharray=""></path></svg>